<svg id="Capa_1" enable-background="new 0 0 512 512" height="512" viewBox="0 0 512 512" width="512" xmlns="http://www.w3.org/2000/svg"><g><g><path d="m385.981 70.097c-27.071-34.23-65.172-58.889-107.287-69.437-11.763-2.942-23.733 4.232-26.677 15.993-1.428 5.699-.551 11.613 2.471 16.653 3.021 5.039 7.822 8.601 13.522 10.028 32.744 8.2 62.386 27.397 83.467 54.051 21.715 27.456 33.192 60.52 33.192 95.614 0 85.071-69.21 154.281-154.28 154.281-30.415 0-59.83-8.834-85.064-25.546-4.898-3.245-10.77-4.388-16.524-3.218-5.758 1.17-10.716 4.512-13.96 9.41-3.245 4.898-4.387 10.767-3.217 16.524 1.169 5.758 4.512 10.716 9.41 13.959 22.187 14.695 46.677 24.615 72.79 29.486 2.239.418 3.864 2.341 3.864 4.572v19.747h-23.114c-21.361 0-38.738 17.378-38.738 38.738v7.027h-14.716c-14.215 0-25.78 11.565-25.78 25.78v15.375c0 7.095 5.772 12.866 12.866 12.866h228.893c7.094 0 12.866-5.772 12.866-12.866v-15.375c0-14.215-11.565-25.78-25.78-25.78h-14.713v-7.027c0-21.36-17.377-38.738-38.738-38.738h-23.114v-17.464c0-2.38 1.743-4.359 4.053-4.605 35.454-3.763 69.225-17.066 97.663-38.473 3.303-2.486 3.965-7.179 1.479-10.482-2.487-3.302-7.179-3.966-10.482-1.479-26.274 19.778-57.478 32.07-90.24 35.547-9.944 1.055-17.443 9.435-17.443 19.491v17.464h-19.994v-19.747c0-9.438-6.767-17.55-16.089-19.289-24.13-4.5-46.762-13.669-67.268-27.25-1.564-1.036-2.632-2.619-3.005-4.457-.374-1.839-.009-3.713 1.027-5.278s2.62-2.632 4.459-3.006c1.843-.373 3.714-.008 5.277 1.028 27.694 18.341 59.967 28.035 93.331 28.035 93.325 0 169.25-75.925 169.25-169.251 0-38.5-12.594-74.773-36.42-104.9-23.119-29.232-55.639-50.288-91.572-59.287-1.821-.456-3.354-1.593-4.319-3.203s-1.245-3.498-.789-5.32c.94-3.756 4.762-6.05 8.521-5.107 38.925 9.749 74.147 32.549 99.179 64.201 25.808 32.633 39.45 71.921 39.45 113.616 0 46.084-17.128 90.094-48.229 123.921-2.797 3.043-2.598 7.778.444 10.576 3.042 2.797 7.777 2.599 10.577-.444 33.648-36.597 52.178-84.205 52.178-134.053.001-45.099-14.757-87.598-42.677-122.901zm-61.795 402.851c5.961 0 10.81 4.849 10.81 10.81v13.271h-224.685v-13.271c0-5.961 4.849-10.81 10.809-10.81zm-53.452-45.764c13.106 0 23.768 10.662 23.768 23.768v7.027h-143.699v-7.027c0-13.106 10.663-23.768 23.768-23.768z"/><path d="m224.64 332.671c77.912 0 141.298-63.386 141.298-141.298 0-32.35-11.33-64.11-31.779-89.174-5.015-6.146-10.478-11.811-16.325-16.96-25.555-22.505-58.436-35.164-93.194-35.164-24.385 0-49.18 6.598-70.351 18.801-10.023 5.778-19.331 12.789-27.66 20.818-27.457 26.471-43.288 63.527-43.288 101.679 0 77.912 63.387 141.298 141.299 141.298zm124.289-163.962c.125.688.237 1.381.351 2.073.186 1.126.354 2.24.509 3.369.78 5.702 1.178 11.461 1.178 17.221 0 26.273-8.065 50.696-21.845 70.93-4.953-.902-8.802-2.387-11.908-4.571-2.279-1.605-4.587-3.805-7.033-6.136-5.822-5.549-12.895-12.29-22.356-12.29-1.298 0-2.642.127-4.033.402-4.233.837-7.91 2.86-11.155 4.644-4.213 2.317-6.943 3.689-9.375 3.193-3.035-.619-4.712-2.069-5.277-4.564-.828-3.652.973-8.362 4.1-10.723 7.961-6.013 14.805-12.979 21.422-19.716 9.745-9.919 18.949-19.288 30.829-24.913 2.453-1.161 5.02-2.177 7.738-3.253 3.864-1.531 27.675-11.155 26.855-15.666zm-168.788-95.564c-.001 2.719-.138 5.619-.409 8.62-.37 4.117 2.667 7.755 6.784 8.125.228.021.454.031.679.031 3.83 0 7.096-2.926 7.446-6.815.312-3.464.47-6.833.47-10.012 0-1.513-.04-3.025-.103-4.531 9.508-2.294 19.428-3.518 29.631-3.518 28.819 0 55.409 9.707 76.688 26.014-6.821 7.109-14.831 13.543-24.322 15.493-3.551.731-6.621 1.156-9.588 1.567-10.495 1.454-19.559 2.708-29.087 16.655-7.182 10.521-13.385 19.607-9.229 36.797.333 1.389.739 2.709 1.131 3.986 1.685 5.489 1.413 6.005.574 6.74-1.73 1.517-6.002-.79-10.991-3.734-2.078-1.227-4.041-2.384-6.028-3.254-10.49-4.585-21.288-8.86-32.106-12.712-2.821-.999-5.486-1.943-6.864-3.353-1.74-1.782-2.164-5.486-1.058-9.204.808-2.7 2.26-5.382 3.574-7.65.605-1.045 1.216-2.076 1.824-3.103 1.975-3.336 4.017-6.785 5.812-10.572 1.769-3.736.175-8.199-3.56-9.969-3.735-1.769-8.199-.176-9.969 3.56-1.498 3.163-3.279 6.169-5.164 9.353-.632 1.067-1.266 2.139-1.896 3.225-1.751 3.023-3.711 6.678-4.968 10.88-2.689 9.046-.891 18.219 4.696 23.941 3.811 3.899 8.67 5.621 12.564 7 10.479 3.731 20.949 7.877 31.118 12.322 1.157.506 2.741 1.44 4.419 2.43 4.441 2.621 10.809 6.378 17.456 6.378 3.676 0 7.439-1.15 11.007-4.277 8.47-7.419 5.592-16.794 3.871-22.395-.34-1.107-.662-2.152-.889-3.099-2.496-10.324.186-14.809 7.039-24.847 5.786-8.47 9.06-8.923 18.778-10.269 3.057-.423 6.522-.903 10.55-1.732 13.559-2.787 24.05-11.272 32.648-20.354 14.494 14.101 25.619 31.643 32.054 51.29-6.664 6.708-13.017 11.443-19.76 14.733-2.647 1.293-5.442 2.401-8.401 3.573-2.82 1.116-5.735 2.271-8.629 3.64-14.289 6.766-24.87 17.537-35.104 27.953-6.524 6.642-12.688 12.915-19.764 18.26-7.825 5.907-11.807 16.589-9.68 25.977 1.884 8.316 8.039 14.121 16.881 15.924 7.992 1.635 14.419-1.901 19.585-4.742 2.515-1.383 4.889-2.689 6.842-3.075 3.655-.718 7.408 2.557 13.159 8.04 2.732 2.603 5.557 5.295 8.744 7.54 3.114 2.191 6.579 3.892 10.498 5.186-23.158 26.079-56.918 42.542-94.456 42.542-1.495 0-2.981-.036-4.463-.087 2.175-8.166 1.384-17.091-2.487-25.708-1.032-2.298-2.051-4.365-2.95-6.189-2.927-5.941-4.861-9.866-5.086-16.85-.064-1.927.166-4.082.41-6.364.574-5.373 1.226-11.463-1.474-17.862-6.675-15.796-19.962-17.471-30.638-18.816-4.62-.582-8.983-1.133-12.628-2.67-6.359-2.69-11.625-8.09-17.199-13.807-4.567-4.684-9.29-9.526-15.022-13.311-9.817-6.5-21.234-9.69-34.692-9.71 2.048-51.822 35.461-95.711 81.732-113.184zm-81.433 128.24c-.003-.035-.007-.071-.01-.106 10.327.074 18.929 2.464 26.148 7.244 4.396 2.902 8.361 6.97 12.561 11.275 6.365 6.527 12.947 13.276 22.092 17.145 5.551 2.343 11.411 3.081 16.581 3.733 10.403 1.311 15.545 2.275 18.72 9.786 1.194 2.831.816 6.361.379 10.448-.288 2.694-.587 5.479-.487 8.446.33 10.209 3.385 16.41 6.62 22.976.885 1.795 1.799 3.652 2.722 5.706 2.805 6.245 3.08 12.638.883 18.119.05-.123-3.767-.377-3.836-.669-52.405-9.926-93.461-52.318-101.38-105.396.008.005.016.011.024.016-.433-2.889-.786-5.796-1.017-8.723z"/></g></g></svg>